<?xml version="1.0" standalone="yes"?>
<!-- SVG graphic -->
<svg xmlns='http://www.w3.org/2000/svg' xmlns:xlink='http://www.w3.org/1999/xlink'
 version="1.1">
<rect x="0" y="0" width="6" height="200" stroke="black" stroke-width="1" fill="blue" tooltip="enable"><title>(0,939)</title></rect><rect x="6" y="79.4462" width="6" height="120.554" stroke="black" stroke-width="1" fill="blue" tooltip="enable"><title>(0.0385886,566)</title></rect><rect x="12" y="106.709" width="6" height="93.2907" stroke="black" stroke-width="1" fill="blue" tooltip="enable"><title>(0.0771772,438)</title></rect><rect x="18" y="112.247" width="6" height="87.7529" stroke="black" stroke-width="1" fill="blue" tooltip="enable"><title>(0.115766,412)</title></rect><rect x="24" y="129.925" width="6" height="70.0745" stroke="black" stroke-width="1" fill="blue" tooltip="enable"><title>(0.154354,329)</title></rect><rect x="30" y="128.86" width="6" height="71.1395" stroke="black" stroke-width="1" fill="blue" tooltip="enable"><title>(0.192943,334)</title></rect><rect x="36" y="137.167" width="6" height="62.8328" stroke="black" stroke-width="1" fill="blue" tooltip="enable"><title>(0.231532,295)</title></rect><rect x="42" y="141.853" width="6" height="58.147" stroke="black" stroke-width="1" fill="blue" tooltip="enable"><title>(0.27012,273)</title></rect><rect x="48" y="149.308" width="6" height="50.6922" stroke="black" stroke-width="1" fill="blue" tooltip="enable"><title>(0.308709,238)</title></rect><rect x="54" y="153.781" width="6" height="46.2194" stroke="black" stroke-width="1" fill="blue" tooltip="enable"><title>(0.347297,217)</title></rect><rect x="60" y="159.318" width="6" height="40.6816" stroke="black" stroke-width="1" fill="blue" tooltip="enable"><title>(0.385886,191)</title></rect><rect x="66" y="160.17" width="6" height="39.8296" stroke="black" stroke-width="1" fill="blue" tooltip="enable"><title>(0.424475,187)</title></rect><rect x="72" y="164.856" width="6" height="35.1438" stroke="black" stroke-width="1" fill="blue" tooltip="enable"><title>(0.463063,165)</title></rect><rect x="78" y="168.051" width="6" height="31.9489" stroke="black" stroke-width="1" fill="blue" tooltip="enable"><title>(0.501652,150)</title></rect><rect x="84" y="169.968" width="6" height="30.0319" stroke="black" stroke-width="1" fill="blue" tooltip="enable"><title>(0.54024,141)</title></rect><rect x="90" y="174.441" width="6" height="25.5591" stroke="black" stroke-width="1" fill="blue" tooltip="enable"><title>(0.578829,120)</title></rect><rect x="96" y="176.784" width="6" height="23.2162" stroke="black" stroke-width="1" fill="blue" tooltip="enable"><title>(0.617418,109)</title></rect><rect x="102" y="173.163" width="6" height="26.8371" stroke="black" stroke-width="1" fill="blue" tooltip="enable"><title>(0.656006,126)</title></rect><rect x="108" y="179.553" width="6" height="20.4473" stroke="black" stroke-width="1" fill="blue" tooltip="enable"><title>(0.694595,96)</title></rect><rect x="114" y="180.192" width="6" height="19.8083" stroke="black" stroke-width="1" fill="blue" tooltip="enable"><title>(0.733183,93)</title></rect><rect x="120" y="185.304" width="6" height="14.6965" stroke="black" stroke-width="1" fill="blue" tooltip="enable"><title>(0.771772,69)</title></rect><rect x="126" y="181.896" width="6" height="18.1044" stroke="black" stroke-width="1" fill="blue" tooltip="enable"><title>(0.81036,85)</title></rect><rect x="132" y="190.202" width="6" height="9.79766" stroke="black" stroke-width="1" fill="blue" tooltip="enable"><title>(0.848949,46)</title></rect><rect x="138" y="185.729" width="6" height="14.2705" stroke="black" stroke-width="1" fill="blue" tooltip="enable"><title>(0.887538,67)</title></rect><rect x="144" y="187.007" width="6" height="12.9925" stroke="black" stroke-width="1" fill="blue" tooltip="enable"><title>(0.926126,61)</title></rect><rect x="150" y="187.433" width="6" height="12.5666" stroke="black" stroke-width="1" fill="blue" tooltip="enable"><title>(0.964715,59)</title></rect><rect x="156" y="189.563" width="6" height="10.4366" stroke="black" stroke-width="1" fill="blue" tooltip="enable"><title>(1.0033,49)</title></rect><rect x="162" y="188.711" width="6" height="11.2886" stroke="black" stroke-width="1" fill="blue" tooltip="enable"><title>(1.04189,53)</title></rect><rect x="168" y="188.285" width="6" height="11.7146" stroke="black" stroke-width="1" fill="blue" tooltip="enable"><title>(1.08048,55)</title></rect><rect x="174" y="191.267" width="6" height="8.73269" stroke="black" stroke-width="1" fill="blue" tooltip="enable"><title>(1.11907,41)</title></rect><rect x="180" y="193.397" width="6" height="6.60277" stroke="black" stroke-width="1" fill="blue" tooltip="enable"><title>(1.15766,31)</title></rect><rect x="186" y="193.184" width="6" height="6.81576" stroke="black" stroke-width="1" fill="blue" tooltip="enable"><title>(1.19625,32)</title></rect><rect x="192" y="194.888" width="6" height="5.11182" stroke="black" stroke-width="1" fill="blue" tooltip="enable"><title>(1.23484,24)</title></rect><rect x="198" y="196.379" width="6" height="3.62087" stroke="black" stroke-width="1" fill="blue" tooltip="enable"><title>(1.27342,17)</title></rect><rect x="204" y="196.805" width="6" height="3.19489" stroke="black" stroke-width="1" fill="blue" tooltip="enable"><title>(1.31201,15)</title></rect><rect x="210" y="196.592" width="6" height="3.40788" stroke="black" stroke-width="1" fill="blue" tooltip="enable"><title>(1.3506,16)</title></rect><rect x="216" y="197.87" width="6" height="2.12993" stroke="black" stroke-width="1" fill="blue" tooltip="enable"><title>(1.38919,10)</title></rect><rect x="222" y="196.592" width="6" height="3.40788" stroke="black" stroke-width="1" fill="blue" tooltip="enable"><title>(1.42778,16)</title></rect><rect x="228" y="197.657" width="6" height="2.34292" stroke="black" stroke-width="1" fill="blue" tooltip="enable"><title>(1.46637,11)</title></rect><rect x="234" y="196.592" width="6" height="3.40788" stroke="black" stroke-width="1" fill="blue" tooltip="enable"><title>(1.50496,16)</title></rect><rect x="240" y="197.231" width="6" height="2.7689" stroke="black" stroke-width="1" fill="blue" tooltip="enable"><title>(1.54354,13)</title></rect><rect x="246" y="196.592" width="6" height="3.40788" stroke="black" stroke-width="1" fill="blue" tooltip="enable"><title>(1.58213,16)</title></rect><rect x="252" y="197.657" width="6" height="2.34292" stroke="black" stroke-width="1" fill="blue" tooltip="enable"><title>(1.62072,11)</title></rect><rect x="258" y="197.231" width="6" height="2.7689" stroke="black" stroke-width="1" fill="blue" tooltip="enable"><title>(1.65931,13)</title></rect><rect x="264" y="197.231" width="6" height="2.7689" stroke="black" stroke-width="1" fill="blue" tooltip="enable"><title>(1.6979,13)</title></rect><rect x="270" y="198.083" width="6" height="1.91693" stroke="black" stroke-width="1" fill="blue" tooltip="enable"><title>(1.73649,9)</title></rect><rect x="276" y="197.657" width="6" height="2.34292" stroke="black" stroke-width="1" fill="blue" tooltip="enable"><title>(1.77508,11)</title></rect><rect x="282" y="198.509" width="6" height="1.49095" stroke="black" stroke-width="1" fill="blue" tooltip="enable"><title>(1.81366,7)</title></rect><rect x="288" y="199.361" width="6" height="0.638978" stroke="black" stroke-width="1" fill="blue" tooltip="enable"><title>(1.85225,3)</title></rect><rect x="294" y="198.509" width="6" height="1.49095" stroke="black" stroke-width="1" fill="blue" tooltip="enable"><title>(1.89084,7)</title></rect><rect x="300" y="198.935" width="6" height="1.06496" stroke="black" stroke-width="1" fill="blue" tooltip="enable"><title>(1.92943,5)</title></rect><rect x="306" y="198.509" width="6" height="1.49095" stroke="black" stroke-width="1" fill="blue" tooltip="enable"><title>(1.96802,7)</title></rect><rect x="312" y="199.148" width="6" height="0.85197" stroke="black" stroke-width="1" fill="blue" tooltip="enable"><title>(2.00661,4)</title></rect><rect x="318" y="199.148" width="6" height="0.85197" stroke="black" stroke-width="1" fill="blue" tooltip="enable"><title>(2.0452,4)</title></rect><rect x="324" y="199.148" width="6" height="0.85197" stroke="black" stroke-width="1" fill="blue" tooltip="enable"><title>(2.08378,4)</title></rect><rect x="330" y="198.722" width="6" height="1.27796" stroke="black" stroke-width="1" fill="blue" tooltip="enable"><title>(2.12237,6)</title></rect><rect x="336" y="199.148" width="6" height="0.85197" stroke="black" stroke-width="1" fill="blue" tooltip="enable"><title>(2.16096,4)</title></rect><rect x="342" y="199.574" width="6" height="0.425985" stroke="black" stroke-width="1" fill="blue" tooltip="enable"><title>(2.19955,2)</title></rect><rect x="348" y="199.361" width="6" height="0.638978" stroke="black" stroke-width="1" fill="blue" tooltip="enable"><title>(2.23814,3)</title></rect><rect x="354" y="199.148" width="6" height="0.85197" stroke="black" stroke-width="1" fill="blue" tooltip="enable"><title>(2.27673,4)</title></rect><rect x="360" y="198.935" width="6" height="1.06496" stroke="black" stroke-width="1" fill="blue" tooltip="enable"><title>(2.31532,5)</title></rect><rect x="366" y="199.787" width="6" height="0.212993" stroke="black" stroke-width="1" fill="blue" tooltip="enable"><title>(2.3539,1)</title></rect><rect x="372" y="198.935" width="6" height="1.06496" stroke="black" stroke-width="1" fill="blue" tooltip="enable"><title>(2.39249,5)</title></rect><rect x="378" y="199.361" width="6" height="0.638978" stroke="black" stroke-width="1" fill="blue" tooltip="enable"><title>(2.43108,3)</title></rect><rect x="384" y="200" width="6" height="0" stroke="black" stroke-width="1" fill="blue" tooltip="enable"><title>(2.46967,0)</title></rect><rect x="390" y="199.361" width="6" height="0.638978" stroke="black" stroke-width="1" fill="blue" tooltip="enable"><title>(2.50826,3)</title></rect><rect x="396" y="199.787" width="6" height="0.212993" stroke="black" stroke-width="1" fill="blue" tooltip="enable"><title>(2.54685,1)</title></rect><rect x="402" y="199.574" width="6" height="0.425985" stroke="black" stroke-width="1" fill="blue" tooltip="enable"><title>(2.58544,2)</title></rect><rect x="408" y="200" width="6" height="0" stroke="black" stroke-width="1" fill="blue" tooltip="enable"><title>(2.62402,0)</title></rect><rect x="414" y="199.574" width="6" height="0.425985" stroke="black" stroke-width="1" fill="blue" tooltip="enable"><title>(2.66261,2)</title></rect><rect x="420" y="199.361" width="6" height="0.638978" stroke="black" stroke-width="1" fill="blue" tooltip="enable"><title>(2.7012,3)</title></rect><rect x="426" y="200" width="6" height="0" stroke="black" stroke-width="1" fill="blue" tooltip="enable"><title>(2.73979,0)</title></rect><rect x="432" y="199.787" width="6" height="0.212993" stroke="black" stroke-width="1" fill="blue" tooltip="enable"><title>(2.77838,1)</title></rect><rect x="438" y="199.787" width="6" height="0.212993" stroke="black" stroke-width="1" fill="blue" tooltip="enable"><title>(2.81697,1)</title></rect><rect x="444" y="199.574" width="6" height="0.425985" stroke="black" stroke-width="1" fill="blue" tooltip="enable"><title>(2.85556,2)</title></rect><rect x="450" y="199.787" width="6" height="0.212993" stroke="black" stroke-width="1" fill="blue" tooltip="enable"><title>(2.89414,1)</title></rect><rect x="456" y="200" width="6" height="0" stroke="black" stroke-width="1" fill="blue" tooltip="enable"><title>(2.93273,0)</title></rect><rect x="462" y="200" width="6" height="0" stroke="black" stroke-width="1" fill="blue" tooltip="enable"><title>(2.97132,0)</title></rect><rect x="468" y="200" width="6" height="0" stroke="black" stroke-width="1" fill="blue" tooltip="enable"><title>(3.00991,0)</title></rect><rect x="474" y="200" width="6" height="0" stroke="black" stroke-width="1" fill="blue" tooltip="enable"><title>(3.0485,0)</title></rect><rect x="480" y="199.574" width="6" height="0.425985" stroke="black" stroke-width="1" fill="blue" tooltip="enable"><title>(3.08709,2)</title></rect><rect x="486" y="200" width="6" height="0" stroke="black" stroke-width="1" fill="blue" tooltip="enable"><title>(3.12568,0)</title></rect><rect x="492" y="199.787" width="6" height="0.212993" stroke="black" stroke-width="1" fill="blue" tooltip="enable"><title>(3.16426,1)</title></rect><rect x="498" y="199.361" width="6" height="0.638978" stroke="black" stroke-width="1" fill="blue" tooltip="enable"><title>(3.20285,3)</title></rect><rect x="504" y="200" width="6" height="0" stroke="black" stroke-width="1" fill="blue" tooltip="enable"><title>(3.24144,0)</title></rect><rect x="510" y="199.787" width="6" height="0.212993" stroke="black" stroke-width="1" fill="blue" tooltip="enable"><title>(3.28003,1)</title></rect><rect x="516" y="200" width="6" height="0" stroke="black" stroke-width="1" fill="blue" tooltip="enable"><title>(3.31862,0)</title></rect><rect x="522" y="200" width="6" height="0" stroke="black" stroke-width="1" fill="blue" tooltip="enable"><title>(3.35721,0)</title></rect><rect x="528" y="200" width="6" height="0" stroke="black" stroke-width="1" fill="blue" tooltip="enable"><title>(3.3958,0)</title></rect><rect x="534" y="199.787" width="6" height="0.212993" stroke="black" stroke-width="1" fill="blue" tooltip="enable"><title>(3.43438,1)</title></rect><rect x="540" y="199.787" width="6" height="0.212993" stroke="black" stroke-width="1" fill="blue" tooltip="enable"><title>(3.47297,1)</title></rect><rect x="546" y="199.787" width="6" height="0.212993" stroke="black" stroke-width="1" fill="blue" tooltip="enable"><title>(3.51156,1)</title></rect><rect x="552" y="200" width="6" height="0" stroke="black" stroke-width="1" fill="blue" tooltip="enable"><title>(3.55015,0)</title></rect><rect x="558" y="200" width="6" height="0" stroke="black" stroke-width="1" fill="blue" tooltip="enable"><title>(3.58874,0)</title></rect><rect x="564" y="200" width="6" height="0" stroke="black" stroke-width="1" fill="blue" tooltip="enable"><title>(3.62733,0)</title></rect><rect x="570" y="200" width="6" height="0" stroke="black" stroke-width="1" fill="blue" tooltip="enable"><title>(3.66592,0)</title></rect><rect x="576" y="200" width="6" height="0" stroke="black" stroke-width="1" fill="blue" tooltip="enable"><title>(3.7045,0)</title></rect><rect x="582" y="200" width="6" height="0" stroke="black" stroke-width="1" fill="blue" tooltip="enable"><title>(3.74309,0)</title></rect><rect x="588" y="199.787" width="6" height="0.212993" stroke="black" stroke-width="1" fill="blue" tooltip="enable"><title>(3.78168,1)</title></rect><rect x="594" y="199.787" width="6" height="0.212993" stroke="black" stroke-width="1" fill="blue" tooltip="enable"><title>(3.82027,1)</title></rect><text x="30" y="240" font-size="20" fill="black">0</text>
<text x="600" y="240" font-size="20" fill="black">3.85886</text>
<polyline points="0,220,600,220" stroke="black" stroke-width="1" fill="none"/>
<text x="720" y="20" font-size="20" fill="black">939</text>
<text x="720" y="200" font-size="20" fill="black">0</text>
<polyline points="660,0,660,200" stroke="black" stroke-width="1" fill="none"/>
</svg>