<?xml version="1.0" standalone="yes"?>
<!-- SVG graphic -->
<svg xmlns='http://www.w3.org/2000/svg' xmlns:xlink='http://www.w3.org/1999/xlink'
 version="1.1">
<rect x="0" y="0" width="6" height="200" stroke="black" stroke-width="1" fill="blue" tooltip="enable"><title>(0,1412)</title></rect><rect x="6" y="77.9037" width="6" height="122.096" stroke="black" stroke-width="1" fill="blue" tooltip="enable"><title>(0.0391717,862)</title></rect><rect x="12" y="101.275" width="6" height="98.7252" stroke="black" stroke-width="1" fill="blue" tooltip="enable"><title>(0.0783434,697)</title></rect><rect x="18" y="106.232" width="6" height="93.7677" stroke="black" stroke-width="1" fill="blue" tooltip="enable"><title>(0.117515,662)</title></rect><rect x="24" y="112.465" width="6" height="87.5354" stroke="black" stroke-width="1" fill="blue" tooltip="enable"><title>(0.156687,618)</title></rect><rect x="30" y="117.989" width="6" height="82.0113" stroke="black" stroke-width="1" fill="blue" tooltip="enable"><title>(0.195859,579)</title></rect><rect x="36" y="121.53" width="6" height="78.4703" stroke="black" stroke-width="1" fill="blue" tooltip="enable"><title>(0.23503,554)</title></rect><rect x="42" y="126.771" width="6" height="73.2295" stroke="black" stroke-width="1" fill="blue" tooltip="enable"><title>(0.274202,517)</title></rect><rect x="48" y="137.535" width="6" height="62.4646" stroke="black" stroke-width="1" fill="blue" tooltip="enable"><title>(0.313374,441)</title></rect><rect x="54" y="134.278" width="6" height="65.7224" stroke="black" stroke-width="1" fill="blue" tooltip="enable"><title>(0.352545,464)</title></rect><rect x="60" y="138.952" width="6" height="61.0482" stroke="black" stroke-width="1" fill="blue" tooltip="enable"><title>(0.391717,431)</title></rect><rect x="66" y="145.184" width="6" height="54.8159" stroke="black" stroke-width="1" fill="blue" tooltip="enable"><title>(0.430889,387)</title></rect><rect x="72" y="145.892" width="6" height="54.1077" stroke="black" stroke-width="1" fill="blue" tooltip="enable"><title>(0.47006,382)</title></rect><rect x="78" y="152.266" width="6" height="47.7337" stroke="black" stroke-width="1" fill="blue" tooltip="enable"><title>(0.509232,337)</title></rect><rect x="84" y="150" width="6" height="50" stroke="black" stroke-width="1" fill="blue" tooltip="enable"><title>(0.548404,353)</title></rect><rect x="90" y="152.266" width="6" height="47.7337" stroke="black" stroke-width="1" fill="blue" tooltip="enable"><title>(0.587576,337)</title></rect><rect x="96" y="159.915" width="6" height="40.085" stroke="black" stroke-width="1" fill="blue" tooltip="enable"><title>(0.626747,283)</title></rect><rect x="102" y="155.807" width="6" height="44.1926" stroke="black" stroke-width="1" fill="blue" tooltip="enable"><title>(0.665919,312)</title></rect><rect x="108" y="161.19" width="6" height="38.8102" stroke="black" stroke-width="1" fill="blue" tooltip="enable"><title>(0.705091,274)</title></rect><rect x="114" y="160.623" width="6" height="39.3768" stroke="black" stroke-width="1" fill="blue" tooltip="enable"><title>(0.744262,278)</title></rect><rect x="120" y="162.606" width="6" height="37.3938" stroke="black" stroke-width="1" fill="blue" tooltip="enable"><title>(0.783434,264)</title></rect><rect x="126" y="166.006" width="6" height="33.9943" stroke="black" stroke-width="1" fill="blue" tooltip="enable"><title>(0.822606,240)</title></rect><rect x="132" y="167.705" width="6" height="32.2946" stroke="black" stroke-width="1" fill="blue" tooltip="enable"><title>(0.861777,228)</title></rect><rect x="138" y="166.997" width="6" height="33.0028" stroke="black" stroke-width="1" fill="blue" tooltip="enable"><title>(0.900949,233)</title></rect><rect x="144" y="168.272" width="6" height="31.728" stroke="black" stroke-width="1" fill="blue" tooltip="enable"><title>(0.940121,224)</title></rect><rect x="150" y="169.83" width="6" height="30.17" stroke="black" stroke-width="1" fill="blue" tooltip="enable"><title>(0.979293,213)</title></rect><rect x="156" y="176.346" width="6" height="23.6544" stroke="black" stroke-width="1" fill="blue" tooltip="enable"><title>(1.01846,167)</title></rect><rect x="162" y="180.028" width="6" height="19.9717" stroke="black" stroke-width="1" fill="blue" tooltip="enable"><title>(1.05764,141)</title></rect><rect x="168" y="179.745" width="6" height="20.255" stroke="black" stroke-width="1" fill="blue" tooltip="enable"><title>(1.09681,143)</title></rect><rect x="174" y="176.204" width="6" height="23.796" stroke="black" stroke-width="1" fill="blue" tooltip="enable"><title>(1.13598,168)</title></rect><rect x="180" y="179.178" width="6" height="20.8215" stroke="black" stroke-width="1" fill="blue" tooltip="enable"><title>(1.17515,147)</title></rect><rect x="186" y="181.445" width="6" height="18.5552" stroke="black" stroke-width="1" fill="blue" tooltip="enable"><title>(1.21432,131)</title></rect><rect x="192" y="183.428" width="6" height="16.5722" stroke="black" stroke-width="1" fill="blue" tooltip="enable"><title>(1.25349,117)</title></rect><rect x="198" y="181.87" width="6" height="18.1303" stroke="black" stroke-width="1" fill="blue" tooltip="enable"><title>(1.29267,128)</title></rect><rect x="204" y="183.711" width="6" height="16.289" stroke="black" stroke-width="1" fill="blue" tooltip="enable"><title>(1.33184,115)</title></rect><rect x="210" y="183.711" width="6" height="16.289" stroke="black" stroke-width="1" fill="blue" tooltip="enable"><title>(1.37101,115)</title></rect><rect x="216" y="185.977" width="6" height="14.0227" stroke="black" stroke-width="1" fill="blue" tooltip="enable"><title>(1.41018,99)</title></rect><rect x="222" y="189.235" width="6" height="10.7649" stroke="black" stroke-width="1" fill="blue" tooltip="enable"><title>(1.44935,76)</title></rect><rect x="228" y="187.394" width="6" height="12.6062" stroke="black" stroke-width="1" fill="blue" tooltip="enable"><title>(1.48852,89)</title></rect><rect x="234" y="190.51" width="6" height="9.49009" stroke="black" stroke-width="1" fill="blue" tooltip="enable"><title>(1.5277,67)</title></rect><rect x="240" y="190.935" width="6" height="9.06516" stroke="black" stroke-width="1" fill="blue" tooltip="enable"><title>(1.56687,64)</title></rect><rect x="246" y="187.677" width="6" height="12.3229" stroke="black" stroke-width="1" fill="blue" tooltip="enable"><title>(1.60604,87)</title></rect><rect x="252" y="190.227" width="6" height="9.77337" stroke="black" stroke-width="1" fill="blue" tooltip="enable"><title>(1.64521,69)</title></rect><rect x="258" y="192.21" width="6" height="7.79037" stroke="black" stroke-width="1" fill="blue" tooltip="enable"><title>(1.68438,55)</title></rect><rect x="264" y="190.652" width="6" height="9.34844" stroke="black" stroke-width="1" fill="blue" tooltip="enable"><title>(1.72355,66)</title></rect><rect x="270" y="191.643" width="6" height="8.35694" stroke="black" stroke-width="1" fill="blue" tooltip="enable"><title>(1.76273,59)</title></rect><rect x="276" y="192.068" width="6" height="7.93201" stroke="black" stroke-width="1" fill="blue" tooltip="enable"><title>(1.8019,56)</title></rect><rect x="282" y="191.501" width="6" height="8.49858" stroke="black" stroke-width="1" fill="blue" tooltip="enable"><title>(1.84107,60)</title></rect><rect x="288" y="193.201" width="6" height="6.79887" stroke="black" stroke-width="1" fill="blue" tooltip="enable"><title>(1.88024,48)</title></rect><rect x="294" y="193.626" width="6" height="6.37394" stroke="black" stroke-width="1" fill="blue" tooltip="enable"><title>(1.91941,45)</title></rect><rect x="300" y="194.334" width="6" height="5.66572" stroke="black" stroke-width="1" fill="blue" tooltip="enable"><title>(1.95859,40)</title></rect><rect x="306" y="195.326" width="6" height="4.67422" stroke="black" stroke-width="1" fill="blue" tooltip="enable"><title>(1.99776,33)</title></rect><rect x="312" y="194.476" width="6" height="5.52408" stroke="black" stroke-width="1" fill="blue" tooltip="enable"><title>(2.03693,39)</title></rect><rect x="318" y="195.042" width="6" height="4.95751" stroke="black" stroke-width="1" fill="blue" tooltip="enable"><title>(2.0761,35)</title></rect><rect x="324" y="195.042" width="6" height="4.95751" stroke="black" stroke-width="1" fill="blue" tooltip="enable"><title>(2.11527,35)</title></rect><rect x="330" y="195.751" width="6" height="4.24929" stroke="black" stroke-width="1" fill="blue" tooltip="enable"><title>(2.15444,30)</title></rect><rect x="336" y="196.601" width="6" height="3.39943" stroke="black" stroke-width="1" fill="blue" tooltip="enable"><title>(2.19362,24)</title></rect><rect x="342" y="194.759" width="6" height="5.24079" stroke="black" stroke-width="1" fill="blue" tooltip="enable"><title>(2.23279,37)</title></rect><rect x="348" y="196.317" width="6" height="3.68272" stroke="black" stroke-width="1" fill="blue" tooltip="enable"><title>(2.27196,26)</title></rect><rect x="354" y="195.609" width="6" height="4.39093" stroke="black" stroke-width="1" fill="blue" tooltip="enable"><title>(2.31113,31)</title></rect><rect x="360" y="196.884" width="6" height="3.11615" stroke="black" stroke-width="1" fill="blue" tooltip="enable"><title>(2.3503,22)</title></rect><rect x="366" y="196.884" width="6" height="3.11615" stroke="black" stroke-width="1" fill="blue" tooltip="enable"><title>(2.38947,22)</title></rect><rect x="372" y="195.326" width="6" height="4.67422" stroke="black" stroke-width="1" fill="blue" tooltip="enable"><title>(2.42865,33)</title></rect><rect x="378" y="197.309" width="6" height="2.69122" stroke="black" stroke-width="1" fill="blue" tooltip="enable"><title>(2.46782,19)</title></rect><rect x="384" y="198.017" width="6" height="1.983" stroke="black" stroke-width="1" fill="blue" tooltip="enable"><title>(2.50699,14)</title></rect><rect x="390" y="196.884" width="6" height="3.11615" stroke="black" stroke-width="1" fill="blue" tooltip="enable"><title>(2.54616,22)</title></rect><rect x="396" y="198.159" width="6" height="1.84136" stroke="black" stroke-width="1" fill="blue" tooltip="enable"><title>(2.58533,13)</title></rect><rect x="402" y="197.875" width="6" height="2.12465" stroke="black" stroke-width="1" fill="blue" tooltip="enable"><title>(2.6245,15)</title></rect><rect x="408" y="198.442" width="6" height="1.55807" stroke="black" stroke-width="1" fill="blue" tooltip="enable"><title>(2.66368,11)</title></rect><rect x="414" y="198.584" width="6" height="1.41643" stroke="black" stroke-width="1" fill="blue" tooltip="enable"><title>(2.70285,10)</title></rect><rect x="420" y="198.867" width="6" height="1.13314" stroke="black" stroke-width="1" fill="blue" tooltip="enable"><title>(2.74202,8)</title></rect><rect x="426" y="198.017" width="6" height="1.983" stroke="black" stroke-width="1" fill="blue" tooltip="enable"><title>(2.78119,14)</title></rect><rect x="432" y="198.725" width="6" height="1.27479" stroke="black" stroke-width="1" fill="blue" tooltip="enable"><title>(2.82036,9)</title></rect><rect x="438" y="197.875" width="6" height="2.12465" stroke="black" stroke-width="1" fill="blue" tooltip="enable"><title>(2.85953,15)</title></rect><rect x="444" y="199.15" width="6" height="0.849858" stroke="black" stroke-width="1" fill="blue" tooltip="enable"><title>(2.89871,6)</title></rect><rect x="450" y="198.442" width="6" height="1.55807" stroke="black" stroke-width="1" fill="blue" tooltip="enable"><title>(2.93788,11)</title></rect><rect x="456" y="198.867" width="6" height="1.13314" stroke="black" stroke-width="1" fill="blue" tooltip="enable"><title>(2.97705,8)</title></rect><rect x="462" y="198.159" width="6" height="1.84136" stroke="black" stroke-width="1" fill="blue" tooltip="enable"><title>(3.01622,13)</title></rect><rect x="468" y="198.867" width="6" height="1.13314" stroke="black" stroke-width="1" fill="blue" tooltip="enable"><title>(3.05539,8)</title></rect><rect x="474" y="199.008" width="6" height="0.991501" stroke="black" stroke-width="1" fill="blue" tooltip="enable"><title>(3.09456,7)</title></rect><rect x="480" y="198.867" width="6" height="1.13314" stroke="black" stroke-width="1" fill="blue" tooltip="enable"><title>(3.13374,8)</title></rect><rect x="486" y="198.867" width="6" height="1.13314" stroke="black" stroke-width="1" fill="blue" tooltip="enable"><title>(3.17291,8)</title></rect><rect x="492" y="199.717" width="6" height="0.283286" stroke="black" stroke-width="1" fill="blue" tooltip="enable"><title>(3.21208,2)</title></rect><rect x="498" y="199.433" width="6" height="0.566572" stroke="black" stroke-width="1" fill="blue" tooltip="enable"><title>(3.25125,4)</title></rect><rect x="504" y="199.433" width="6" height="0.566572" stroke="black" stroke-width="1" fill="blue" tooltip="enable"><title>(3.29042,4)</title></rect><rect x="510" y="198.725" width="6" height="1.27479" stroke="black" stroke-width="1" fill="blue" tooltip="enable"><title>(3.32959,9)</title></rect><rect x="516" y="199.433" width="6" height="0.566572" stroke="black" stroke-width="1" fill="blue" tooltip="enable"><title>(3.36877,4)</title></rect><rect x="522" y="199.292" width="6" height="0.708215" stroke="black" stroke-width="1" fill="blue" tooltip="enable"><title>(3.40794,5)</title></rect><rect x="528" y="199.858" width="6" height="0.141643" stroke="black" stroke-width="1" fill="blue" tooltip="enable"><title>(3.44711,1)</title></rect><rect x="534" y="199.433" width="6" height="0.566572" stroke="black" stroke-width="1" fill="blue" tooltip="enable"><title>(3.48628,4)</title></rect><rect x="540" y="199.717" width="6" height="0.283286" stroke="black" stroke-width="1" fill="blue" tooltip="enable"><title>(3.52545,2)</title></rect><rect x="546" y="199.15" width="6" height="0.849858" stroke="black" stroke-width="1" fill="blue" tooltip="enable"><title>(3.56462,6)</title></rect><rect x="552" y="199.575" width="6" height="0.424929" stroke="black" stroke-width="1" fill="blue" tooltip="enable"><title>(3.6038,3)</title></rect><rect x="558" y="199.858" width="6" height="0.141643" stroke="black" stroke-width="1" fill="blue" tooltip="enable"><title>(3.64297,1)</title></rect><rect x="564" y="199.858" width="6" height="0.141643" stroke="black" stroke-width="1" fill="blue" tooltip="enable"><title>(3.68214,1)</title></rect><rect x="570" y="199.717" width="6" height="0.283286" stroke="black" stroke-width="1" fill="blue" tooltip="enable"><title>(3.72131,2)</title></rect><rect x="576" y="200" width="6" height="0" stroke="black" stroke-width="1" fill="blue" tooltip="enable"><title>(3.76048,0)</title></rect><rect x="582" y="200" width="6" height="0" stroke="black" stroke-width="1" fill="blue" tooltip="enable"><title>(3.79965,0)</title></rect><rect x="588" y="199.858" width="6" height="0.141643" stroke="black" stroke-width="1" fill="blue" tooltip="enable"><title>(3.83883,1)</title></rect><rect x="594" y="199.858" width="6" height="0.141643" stroke="black" stroke-width="1" fill="blue" tooltip="enable"><title>(3.878,1)</title></rect><text x="30" y="240" font-size="20" fill="black">0</text>
<text x="600" y="240" font-size="20" fill="black">3.91717</text>
<polyline points="0,220,600,220" stroke="black" stroke-width="1" fill="none"/>
<text x="720" y="20" font-size="20" fill="black">1412</text>
<text x="720" y="200" font-size="20" fill="black">0</text>
<polyline points="660,0,660,200" stroke="black" stroke-width="1" fill="none"/>
</svg>