<?xml version="1.0" standalone="yes"?>
<!-- SVG graphic -->
<svg xmlns='http://www.w3.org/2000/svg' xmlns:xlink='http://www.w3.org/1999/xlink'
 version="1.1">
<rect x="0" y="0" width="6" height="200" stroke="black" stroke-width="1" fill="blue" tooltip="enable"><title>(0,2275)</title></rect><rect x="6" y="60.1319" width="6" height="139.868" stroke="black" stroke-width="1" fill="blue" tooltip="enable"><title>(0.0390747,1591)</title></rect><rect x="12" y="72.2637" width="6" height="127.736" stroke="black" stroke-width="1" fill="blue" tooltip="enable"><title>(0.0781494,1453)</title></rect><rect x="18" y="85.1868" width="6" height="114.813" stroke="black" stroke-width="1" fill="blue" tooltip="enable"><title>(0.117224,1306)</title></rect><rect x="24" y="89.7582" width="6" height="110.242" stroke="black" stroke-width="1" fill="blue" tooltip="enable"><title>(0.156299,1254)</title></rect><rect x="30" y="92.2198" width="6" height="107.78" stroke="black" stroke-width="1" fill="blue" tooltip="enable"><title>(0.195374,1226)</title></rect><rect x="36" y="100.923" width="6" height="99.0769" stroke="black" stroke-width="1" fill="blue" tooltip="enable"><title>(0.234448,1127)</title></rect><rect x="42" y="109.802" width="6" height="90.1978" stroke="black" stroke-width="1" fill="blue" tooltip="enable"><title>(0.273523,1026)</title></rect><rect x="48" y="108.835" width="6" height="91.1648" stroke="black" stroke-width="1" fill="blue" tooltip="enable"><title>(0.312598,1037)</title></rect><rect x="54" y="114.813" width="6" height="85.1868" stroke="black" stroke-width="1" fill="blue" tooltip="enable"><title>(0.351673,969)</title></rect><rect x="60" y="124.747" width="6" height="75.2527" stroke="black" stroke-width="1" fill="blue" tooltip="enable"><title>(0.390747,856)</title></rect><rect x="66" y="121.582" width="6" height="78.4176" stroke="black" stroke-width="1" fill="blue" tooltip="enable"><title>(0.429822,892)</title></rect><rect x="72" y="126.593" width="6" height="73.4066" stroke="black" stroke-width="1" fill="blue" tooltip="enable"><title>(0.468897,835)</title></rect><rect x="78" y="130.989" width="6" height="69.011" stroke="black" stroke-width="1" fill="blue" tooltip="enable"><title>(0.507971,785)</title></rect><rect x="84" y="135.912" width="6" height="64.0879" stroke="black" stroke-width="1" fill="blue" tooltip="enable"><title>(0.547046,729)</title></rect><rect x="90" y="132.22" width="6" height="67.7802" stroke="black" stroke-width="1" fill="blue" tooltip="enable"><title>(0.586121,771)</title></rect><rect x="96" y="142.33" width="6" height="57.6703" stroke="black" stroke-width="1" fill="blue" tooltip="enable"><title>(0.625196,656)</title></rect><rect x="102" y="144.352" width="6" height="55.6484" stroke="black" stroke-width="1" fill="blue" tooltip="enable"><title>(0.66427,633)</title></rect><rect x="108" y="146.11" width="6" height="53.8901" stroke="black" stroke-width="1" fill="blue" tooltip="enable"><title>(0.703345,613)</title></rect><rect x="114" y="151.736" width="6" height="48.2637" stroke="black" stroke-width="1" fill="blue" tooltip="enable"><title>(0.74242,549)</title></rect><rect x="120" y="152.352" width="6" height="47.6484" stroke="black" stroke-width="1" fill="blue" tooltip="enable"><title>(0.781494,542)</title></rect><rect x="126" y="157.978" width="6" height="42.022" stroke="black" stroke-width="1" fill="blue" tooltip="enable"><title>(0.820569,478)</title></rect><rect x="132" y="161.407" width="6" height="38.5934" stroke="black" stroke-width="1" fill="blue" tooltip="enable"><title>(0.859644,439)</title></rect><rect x="138" y="161.495" width="6" height="38.5055" stroke="black" stroke-width="1" fill="blue" tooltip="enable"><title>(0.898719,438)</title></rect><rect x="144" y="164.22" width="6" height="35.7802" stroke="black" stroke-width="1" fill="blue" tooltip="enable"><title>(0.937793,407)</title></rect><rect x="150" y="161.758" width="6" height="38.2418" stroke="black" stroke-width="1" fill="blue" tooltip="enable"><title>(0.976868,435)</title></rect><rect x="156" y="162.901" width="6" height="37.0989" stroke="black" stroke-width="1" fill="blue" tooltip="enable"><title>(1.01594,422)</title></rect><rect x="162" y="169.407" width="6" height="30.5934" stroke="black" stroke-width="1" fill="blue" tooltip="enable"><title>(1.05502,348)</title></rect><rect x="168" y="167.824" width="6" height="32.1758" stroke="black" stroke-width="1" fill="blue" tooltip="enable"><title>(1.09409,366)</title></rect><rect x="174" y="172.659" width="6" height="27.3407" stroke="black" stroke-width="1" fill="blue" tooltip="enable"><title>(1.13317,311)</title></rect><rect x="180" y="173.714" width="6" height="26.2857" stroke="black" stroke-width="1" fill="blue" tooltip="enable"><title>(1.17224,299)</title></rect><rect x="186" y="172.571" width="6" height="27.4286" stroke="black" stroke-width="1" fill="blue" tooltip="enable"><title>(1.21132,312)</title></rect><rect x="192" y="175.648" width="6" height="24.3516" stroke="black" stroke-width="1" fill="blue" tooltip="enable"><title>(1.25039,277)</title></rect><rect x="198" y="177.758" width="6" height="22.2418" stroke="black" stroke-width="1" fill="blue" tooltip="enable"><title>(1.28947,253)</title></rect><rect x="204" y="180.835" width="6" height="19.1648" stroke="black" stroke-width="1" fill="blue" tooltip="enable"><title>(1.32854,218)</title></rect><rect x="210" y="179.78" width="6" height="20.2198" stroke="black" stroke-width="1" fill="blue" tooltip="enable"><title>(1.36762,230)</title></rect><rect x="216" y="181.978" width="6" height="18.022" stroke="black" stroke-width="1" fill="blue" tooltip="enable"><title>(1.40669,205)</title></rect><rect x="222" y="180.747" width="6" height="19.2527" stroke="black" stroke-width="1" fill="blue" tooltip="enable"><title>(1.44576,219)</title></rect><rect x="228" y="185.231" width="6" height="14.7692" stroke="black" stroke-width="1" fill="blue" tooltip="enable"><title>(1.48484,168)</title></rect><rect x="234" y="184.264" width="6" height="15.7363" stroke="black" stroke-width="1" fill="blue" tooltip="enable"><title>(1.52391,179)</title></rect><rect x="240" y="186.637" width="6" height="13.3626" stroke="black" stroke-width="1" fill="blue" tooltip="enable"><title>(1.56299,152)</title></rect><rect x="246" y="187.429" width="6" height="12.5714" stroke="black" stroke-width="1" fill="blue" tooltip="enable"><title>(1.60206,143)</title></rect><rect x="252" y="186.549" width="6" height="13.4506" stroke="black" stroke-width="1" fill="blue" tooltip="enable"><title>(1.64114,153)</title></rect><rect x="258" y="188.835" width="6" height="11.1648" stroke="black" stroke-width="1" fill="blue" tooltip="enable"><title>(1.68021,127)</title></rect><rect x="264" y="188.396" width="6" height="11.6044" stroke="black" stroke-width="1" fill="blue" tooltip="enable"><title>(1.71929,132)</title></rect><rect x="270" y="189.275" width="6" height="10.7253" stroke="black" stroke-width="1" fill="blue" tooltip="enable"><title>(1.75836,122)</title></rect><rect x="276" y="187.604" width="6" height="12.3956" stroke="black" stroke-width="1" fill="blue" tooltip="enable"><title>(1.79744,141)</title></rect><rect x="282" y="189.978" width="6" height="10.022" stroke="black" stroke-width="1" fill="blue" tooltip="enable"><title>(1.83651,114)</title></rect><rect x="288" y="190.681" width="6" height="9.31868" stroke="black" stroke-width="1" fill="blue" tooltip="enable"><title>(1.87559,106)</title></rect><rect x="294" y="191.033" width="6" height="8.96703" stroke="black" stroke-width="1" fill="blue" tooltip="enable"><title>(1.91466,102)</title></rect><rect x="300" y="191.385" width="6" height="8.61539" stroke="black" stroke-width="1" fill="blue" tooltip="enable"><title>(1.95374,98)</title></rect><rect x="306" y="192.44" width="6" height="7.56044" stroke="black" stroke-width="1" fill="blue" tooltip="enable"><title>(1.99281,86)</title></rect><rect x="312" y="193.231" width="6" height="6.76923" stroke="black" stroke-width="1" fill="blue" tooltip="enable"><title>(2.03189,77)</title></rect><rect x="318" y="192.44" width="6" height="7.56044" stroke="black" stroke-width="1" fill="blue" tooltip="enable"><title>(2.07096,86)</title></rect><rect x="324" y="192.967" width="6" height="7.03297" stroke="black" stroke-width="1" fill="blue" tooltip="enable"><title>(2.11004,80)</title></rect><rect x="330" y="192.879" width="6" height="7.12088" stroke="black" stroke-width="1" fill="blue" tooltip="enable"><title>(2.14911,81)</title></rect><rect x="336" y="193.143" width="6" height="6.85714" stroke="black" stroke-width="1" fill="blue" tooltip="enable"><title>(2.18818,78)</title></rect><rect x="342" y="193.846" width="6" height="6.15385" stroke="black" stroke-width="1" fill="blue" tooltip="enable"><title>(2.22726,70)</title></rect><rect x="348" y="194.286" width="6" height="5.71429" stroke="black" stroke-width="1" fill="blue" tooltip="enable"><title>(2.26633,65)</title></rect><rect x="354" y="194.637" width="6" height="5.36264" stroke="black" stroke-width="1" fill="blue" tooltip="enable"><title>(2.30541,61)</title></rect><rect x="360" y="194.901" width="6" height="5.0989" stroke="black" stroke-width="1" fill="blue" tooltip="enable"><title>(2.34448,58)</title></rect><rect x="366" y="193.846" width="6" height="6.15385" stroke="black" stroke-width="1" fill="blue" tooltip="enable"><title>(2.38356,70)</title></rect><rect x="372" y="195.692" width="6" height="4.30769" stroke="black" stroke-width="1" fill="blue" tooltip="enable"><title>(2.42263,49)</title></rect><rect x="378" y="195.78" width="6" height="4.21978" stroke="black" stroke-width="1" fill="blue" tooltip="enable"><title>(2.46171,48)</title></rect><rect x="384" y="195.868" width="6" height="4.13187" stroke="black" stroke-width="1" fill="blue" tooltip="enable"><title>(2.50078,47)</title></rect><rect x="390" y="194.286" width="6" height="5.71429" stroke="black" stroke-width="1" fill="blue" tooltip="enable"><title>(2.53986,65)</title></rect><rect x="396" y="195.604" width="6" height="4.3956" stroke="black" stroke-width="1" fill="blue" tooltip="enable"><title>(2.57893,50)</title></rect><rect x="402" y="196.484" width="6" height="3.51648" stroke="black" stroke-width="1" fill="blue" tooltip="enable"><title>(2.61801,40)</title></rect><rect x="408" y="196.747" width="6" height="3.25275" stroke="black" stroke-width="1" fill="blue" tooltip="enable"><title>(2.65708,37)</title></rect><rect x="414" y="197.099" width="6" height="2.9011" stroke="black" stroke-width="1" fill="blue" tooltip="enable"><title>(2.69616,33)</title></rect><rect x="420" y="196.659" width="6" height="3.34066" stroke="black" stroke-width="1" fill="blue" tooltip="enable"><title>(2.73523,38)</title></rect><rect x="426" y="195.604" width="6" height="4.3956" stroke="black" stroke-width="1" fill="blue" tooltip="enable"><title>(2.77431,50)</title></rect><rect x="432" y="196.835" width="6" height="3.16484" stroke="black" stroke-width="1" fill="blue" tooltip="enable"><title>(2.81338,36)</title></rect><rect x="438" y="196.044" width="6" height="3.95604" stroke="black" stroke-width="1" fill="blue" tooltip="enable"><title>(2.85245,45)</title></rect><rect x="444" y="196.571" width="6" height="3.42857" stroke="black" stroke-width="1" fill="blue" tooltip="enable"><title>(2.89153,39)</title></rect><rect x="450" y="196.659" width="6" height="3.34066" stroke="black" stroke-width="1" fill="blue" tooltip="enable"><title>(2.9306,38)</title></rect><rect x="456" y="198.154" width="6" height="1.84615" stroke="black" stroke-width="1" fill="blue" tooltip="enable"><title>(2.96968,21)</title></rect><rect x="462" y="197.538" width="6" height="2.46154" stroke="black" stroke-width="1" fill="blue" tooltip="enable"><title>(3.00875,28)</title></rect><rect x="468" y="197.802" width="6" height="2.1978" stroke="black" stroke-width="1" fill="blue" tooltip="enable"><title>(3.04783,25)</title></rect><rect x="474" y="198.33" width="6" height="1.67033" stroke="black" stroke-width="1" fill="blue" tooltip="enable"><title>(3.0869,19)</title></rect><rect x="480" y="197.714" width="6" height="2.28571" stroke="black" stroke-width="1" fill="blue" tooltip="enable"><title>(3.12598,26)</title></rect><rect x="486" y="197.802" width="6" height="2.1978" stroke="black" stroke-width="1" fill="blue" tooltip="enable"><title>(3.16505,25)</title></rect><rect x="492" y="197.538" width="6" height="2.46154" stroke="black" stroke-width="1" fill="blue" tooltip="enable"><title>(3.20413,28)</title></rect><rect x="498" y="198.857" width="6" height="1.14286" stroke="black" stroke-width="1" fill="blue" tooltip="enable"><title>(3.2432,13)</title></rect><rect x="504" y="197.978" width="6" height="2.02198" stroke="black" stroke-width="1" fill="blue" tooltip="enable"><title>(3.28228,23)</title></rect><rect x="510" y="198.154" width="6" height="1.84615" stroke="black" stroke-width="1" fill="blue" tooltip="enable"><title>(3.32135,21)</title></rect><rect x="516" y="198.769" width="6" height="1.23077" stroke="black" stroke-width="1" fill="blue" tooltip="enable"><title>(3.36043,14)</title></rect><rect x="522" y="198.769" width="6" height="1.23077" stroke="black" stroke-width="1" fill="blue" tooltip="enable"><title>(3.3995,14)</title></rect><rect x="528" y="198.593" width="6" height="1.40659" stroke="black" stroke-width="1" fill="blue" tooltip="enable"><title>(3.43858,16)</title></rect><rect x="534" y="199.209" width="6" height="0.791209" stroke="black" stroke-width="1" fill="blue" tooltip="enable"><title>(3.47765,9)</title></rect><rect x="540" y="199.209" width="6" height="0.791209" stroke="black" stroke-width="1" fill="blue" tooltip="enable"><title>(3.51673,9)</title></rect><rect x="546" y="198.681" width="6" height="1.31868" stroke="black" stroke-width="1" fill="blue" tooltip="enable"><title>(3.5558,15)</title></rect><rect x="552" y="198.418" width="6" height="1.58242" stroke="black" stroke-width="1" fill="blue" tooltip="enable"><title>(3.59487,18)</title></rect><rect x="558" y="199.297" width="6" height="0.703297" stroke="black" stroke-width="1" fill="blue" tooltip="enable"><title>(3.63395,8)</title></rect><rect x="564" y="199.473" width="6" height="0.527473" stroke="black" stroke-width="1" fill="blue" tooltip="enable"><title>(3.67302,6)</title></rect><rect x="570" y="199.736" width="6" height="0.263736" stroke="black" stroke-width="1" fill="blue" tooltip="enable"><title>(3.7121,3)</title></rect><rect x="576" y="199.56" width="6" height="0.43956" stroke="black" stroke-width="1" fill="blue" tooltip="enable"><title>(3.75117,5)</title></rect><rect x="582" y="199.648" width="6" height="0.351648" stroke="black" stroke-width="1" fill="blue" tooltip="enable"><title>(3.79025,4)</title></rect><rect x="588" y="199.56" width="6" height="0.43956" stroke="black" stroke-width="1" fill="blue" tooltip="enable"><title>(3.82932,5)</title></rect><rect x="594" y="199.736" width="6" height="0.263736" stroke="black" stroke-width="1" fill="blue" tooltip="enable"><title>(3.8684,3)</title></rect><text x="30" y="240" font-size="20" fill="black">0</text>
<text x="600" y="240" font-size="20" fill="black">3.90747</text>
<polyline points="0,220,600,220" stroke="black" stroke-width="1" fill="none"/>
<text x="720" y="20" font-size="20" fill="black">2275</text>
<text x="720" y="200" font-size="20" fill="black">0</text>
<polyline points="660,0,660,200" stroke="black" stroke-width="1" fill="none"/>
</svg>