<?xml version="1.0" standalone="yes"?>
<!-- SVG graphic -->
<svg xmlns='http://www.w3.org/2000/svg' xmlns:xlink='http://www.w3.org/1999/xlink'
 version="1.1">
<rect x="0" y="0" width="6" height="200" stroke="black" stroke-width="1" fill="blue" tooltip="enable"><title>(0,6051)</title></rect><rect x="6" y="133.267" width="6" height="66.7328" stroke="black" stroke-width="1" fill="blue" tooltip="enable"><title>(0.0396423,2019)</title></rect><rect x="12" y="149.628" width="6" height="50.3718" stroke="black" stroke-width="1" fill="blue" tooltip="enable"><title>(0.0792847,1524)</title></rect><rect x="18" y="155.313" width="6" height="44.6868" stroke="black" stroke-width="1" fill="blue" tooltip="enable"><title>(0.118927,1352)</title></rect><rect x="24" y="157.825" width="6" height="42.1748" stroke="black" stroke-width="1" fill="blue" tooltip="enable"><title>(0.158569,1276)</title></rect><rect x="30" y="162.188" width="6" height="37.8119" stroke="black" stroke-width="1" fill="blue" tooltip="enable"><title>(0.198212,1144)</title></rect><rect x="36" y="165.791" width="6" height="34.2092" stroke="black" stroke-width="1" fill="blue" tooltip="enable"><title>(0.237854,1035)</title></rect><rect x="42" y="165.923" width="6" height="34.077" stroke="black" stroke-width="1" fill="blue" tooltip="enable"><title>(0.277496,1031)</title></rect><rect x="48" y="166.584" width="6" height="33.416" stroke="black" stroke-width="1" fill="blue" tooltip="enable"><title>(0.317139,1011)</title></rect><rect x="54" y="168.171" width="6" height="31.8295" stroke="black" stroke-width="1" fill="blue" tooltip="enable"><title>(0.356781,963)</title></rect><rect x="60" y="169.592" width="6" height="30.4082" stroke="black" stroke-width="1" fill="blue" tooltip="enable"><title>(0.396423,920)</title></rect><rect x="66" y="171.707" width="6" height="28.2928" stroke="black" stroke-width="1" fill="blue" tooltip="enable"><title>(0.436066,856)</title></rect><rect x="72" y="171.344" width="6" height="28.6564" stroke="black" stroke-width="1" fill="blue" tooltip="enable"><title>(0.475708,867)</title></rect><rect x="78" y="173.095" width="6" height="26.9046" stroke="black" stroke-width="1" fill="blue" tooltip="enable"><title>(0.51535,814)</title></rect><rect x="84" y="170.98" width="6" height="29.02" stroke="black" stroke-width="1" fill="blue" tooltip="enable"><title>(0.554993,878)</title></rect><rect x="90" y="173.756" width="6" height="26.2436" stroke="black" stroke-width="1" fill="blue" tooltip="enable"><title>(0.594635,794)</title></rect><rect x="96" y="176.467" width="6" height="23.5333" stroke="black" stroke-width="1" fill="blue" tooltip="enable"><title>(0.634277,712)</title></rect><rect x="102" y="176.368" width="6" height="23.6325" stroke="black" stroke-width="1" fill="blue" tooltip="enable"><title>(0.67392,715)</title></rect><rect x="108" y="176.896" width="6" height="23.1036" stroke="black" stroke-width="1" fill="blue" tooltip="enable"><title>(0.713562,699)</title></rect><rect x="114" y="177.987" width="6" height="22.0129" stroke="black" stroke-width="1" fill="blue" tooltip="enable"><title>(0.753204,666)</title></rect><rect x="120" y="178.351" width="6" height="21.6493" stroke="black" stroke-width="1" fill="blue" tooltip="enable"><title>(0.792847,655)</title></rect><rect x="126" y="179.97" width="6" height="20.0297" stroke="black" stroke-width="1" fill="blue" tooltip="enable"><title>(0.832489,606)</title></rect><rect x="132" y="179.706" width="6" height="20.2942" stroke="black" stroke-width="1" fill="blue" tooltip="enable"><title>(0.872131,614)</title></rect><rect x="138" y="180.797" width="6" height="19.2034" stroke="black" stroke-width="1" fill="blue" tooltip="enable"><title>(0.911774,581)</title></rect><rect x="144" y="180.83" width="6" height="19.1704" stroke="black" stroke-width="1" fill="blue" tooltip="enable"><title>(0.951416,580)</title></rect><rect x="150" y="181.292" width="6" height="18.7077" stroke="black" stroke-width="1" fill="blue" tooltip="enable"><title>(0.991058,566)</title></rect><rect x="156" y="182.482" width="6" height="17.5178" stroke="black" stroke-width="1" fill="blue" tooltip="enable"><title>(1.0307,530)</title></rect><rect x="162" y="184.498" width="6" height="15.5016" stroke="black" stroke-width="1" fill="blue" tooltip="enable"><title>(1.07034,469)</title></rect><rect x="168" y="183.11" width="6" height="16.8898" stroke="black" stroke-width="1" fill="blue" tooltip="enable"><title>(1.10999,511)</title></rect><rect x="174" y="184.399" width="6" height="15.6007" stroke="black" stroke-width="1" fill="blue" tooltip="enable"><title>(1.14963,472)</title></rect><rect x="180" y="184.333" width="6" height="15.6668" stroke="black" stroke-width="1" fill="blue" tooltip="enable"><title>(1.18927,474)</title></rect><rect x="186" y="186.019" width="6" height="13.9812" stroke="black" stroke-width="1" fill="blue" tooltip="enable"><title>(1.22891,423)</title></rect><rect x="192" y="186.217" width="6" height="13.7828" stroke="black" stroke-width="1" fill="blue" tooltip="enable"><title>(1.26855,417)</title></rect><rect x="198" y="186.019" width="6" height="13.9812" stroke="black" stroke-width="1" fill="blue" tooltip="enable"><title>(1.3082,423)</title></rect><rect x="204" y="187.936" width="6" height="12.0641" stroke="black" stroke-width="1" fill="blue" tooltip="enable"><title>(1.34784,365)</title></rect><rect x="210" y="188.299" width="6" height="11.7005" stroke="black" stroke-width="1" fill="blue" tooltip="enable"><title>(1.38748,354)</title></rect><rect x="216" y="187.671" width="6" height="12.3285" stroke="black" stroke-width="1" fill="blue" tooltip="enable"><title>(1.42712,373)</title></rect><rect x="222" y="189.324" width="6" height="10.6759" stroke="black" stroke-width="1" fill="blue" tooltip="enable"><title>(1.46677,323)</title></rect><rect x="228" y="189.622" width="6" height="10.3785" stroke="black" stroke-width="1" fill="blue" tooltip="enable"><title>(1.50641,314)</title></rect><rect x="234" y="189.126" width="6" height="10.8742" stroke="black" stroke-width="1" fill="blue" tooltip="enable"><title>(1.54605,329)</title></rect><rect x="240" y="189.522" width="6" height="10.4776" stroke="black" stroke-width="1" fill="blue" tooltip="enable"><title>(1.58569,317)</title></rect><rect x="246" y="191.506" width="6" height="8.49446" stroke="black" stroke-width="1" fill="blue" tooltip="enable"><title>(1.62534,257)</title></rect><rect x="252" y="191.638" width="6" height="8.36225" stroke="black" stroke-width="1" fill="blue" tooltip="enable"><title>(1.66498,253)</title></rect><rect x="258" y="191.704" width="6" height="8.29615" stroke="black" stroke-width="1" fill="blue" tooltip="enable"><title>(1.70462,251)</title></rect><rect x="264" y="191.803" width="6" height="8.19699" stroke="black" stroke-width="1" fill="blue" tooltip="enable"><title>(1.74426,248)</title></rect><rect x="270" y="192.1" width="6" height="7.89952" stroke="black" stroke-width="1" fill="blue" tooltip="enable"><title>(1.78391,239)</title></rect><rect x="276" y="192.795" width="6" height="7.20542" stroke="black" stroke-width="1" fill="blue" tooltip="enable"><title>(1.82355,218)</title></rect><rect x="282" y="192.728" width="6" height="7.27153" stroke="black" stroke-width="1" fill="blue" tooltip="enable"><title>(1.86319,220)</title></rect><rect x="288" y="193.191" width="6" height="6.80879" stroke="black" stroke-width="1" fill="blue" tooltip="enable"><title>(1.90283,206)</title></rect><rect x="294" y="194.579" width="6" height="5.42059" stroke="black" stroke-width="1" fill="blue" tooltip="enable"><title>(1.94247,164)</title></rect><rect x="300" y="194.117" width="6" height="5.88333" stroke="black" stroke-width="1" fill="blue" tooltip="enable"><title>(1.98212,178)</title></rect><rect x="306" y="193.951" width="6" height="6.04859" stroke="black" stroke-width="1" fill="blue" tooltip="enable"><title>(2.02176,183)</title></rect><rect x="312" y="194.414" width="6" height="5.58585" stroke="black" stroke-width="1" fill="blue" tooltip="enable"><title>(2.0614,169)</title></rect><rect x="318" y="195.505" width="6" height="4.49512" stroke="black" stroke-width="1" fill="blue" tooltip="enable"><title>(2.10104,136)</title></rect><rect x="324" y="195.637" width="6" height="4.36292" stroke="black" stroke-width="1" fill="blue" tooltip="enable"><title>(2.14069,132)</title></rect><rect x="330" y="194.778" width="6" height="5.22228" stroke="black" stroke-width="1" fill="blue" tooltip="enable"><title>(2.18033,158)</title></rect><rect x="336" y="194.943" width="6" height="5.05702" stroke="black" stroke-width="1" fill="blue" tooltip="enable"><title>(2.21997,153)</title></rect><rect x="342" y="195.835" width="6" height="4.1646" stroke="black" stroke-width="1" fill="blue" tooltip="enable"><title>(2.25961,126)</title></rect><rect x="348" y="195.868" width="6" height="4.13155" stroke="black" stroke-width="1" fill="blue" tooltip="enable"><title>(2.29926,125)</title></rect><rect x="354" y="196.43" width="6" height="3.56966" stroke="black" stroke-width="1" fill="blue" tooltip="enable"><title>(2.3389,108)</title></rect><rect x="360" y="196.166" width="6" height="3.83408" stroke="black" stroke-width="1" fill="blue" tooltip="enable"><title>(2.37854,116)</title></rect><rect x="366" y="196.43" width="6" height="3.56966" stroke="black" stroke-width="1" fill="blue" tooltip="enable"><title>(2.41818,108)</title></rect><rect x="372" y="196.463" width="6" height="3.53661" stroke="black" stroke-width="1" fill="blue" tooltip="enable"><title>(2.45782,107)</title></rect><rect x="378" y="197.058" width="6" height="2.94166" stroke="black" stroke-width="1" fill="blue" tooltip="enable"><title>(2.49747,89)</title></rect><rect x="384" y="196.728" width="6" height="3.27219" stroke="black" stroke-width="1" fill="blue" tooltip="enable"><title>(2.53711,99)</title></rect><rect x="390" y="196.926" width="6" height="3.07387" stroke="black" stroke-width="1" fill="blue" tooltip="enable"><title>(2.57675,93)</title></rect><rect x="396" y="197.785" width="6" height="2.21451" stroke="black" stroke-width="1" fill="blue" tooltip="enable"><title>(2.61639,67)</title></rect><rect x="402" y="197.785" width="6" height="2.21451" stroke="black" stroke-width="1" fill="blue" tooltip="enable"><title>(2.65604,67)</title></rect><rect x="408" y="197.951" width="6" height="2.04925" stroke="black" stroke-width="1" fill="blue" tooltip="enable"><title>(2.69568,62)</title></rect><rect x="414" y="197.719" width="6" height="2.28061" stroke="black" stroke-width="1" fill="blue" tooltip="enable"><title>(2.73532,69)</title></rect><rect x="420" y="197.984" width="6" height="2.0162" stroke="black" stroke-width="1" fill="blue" tooltip="enable"><title>(2.77496,61)</title></rect><rect x="426" y="197.587" width="6" height="2.41282" stroke="black" stroke-width="1" fill="blue" tooltip="enable"><title>(2.81461,73)</title></rect><rect x="432" y="198.314" width="6" height="1.68567" stroke="black" stroke-width="1" fill="blue" tooltip="enable"><title>(2.85425,51)</title></rect><rect x="438" y="198.546" width="6" height="1.45431" stroke="black" stroke-width="1" fill="blue" tooltip="enable"><title>(2.89389,44)</title></rect><rect x="444" y="198.413" width="6" height="1.58651" stroke="black" stroke-width="1" fill="blue" tooltip="enable"><title>(2.93353,48)</title></rect><rect x="450" y="198.017" width="6" height="1.98314" stroke="black" stroke-width="1" fill="blue" tooltip="enable"><title>(2.97318,60)</title></rect><rect x="456" y="198.149" width="6" height="1.85093" stroke="black" stroke-width="1" fill="blue" tooltip="enable"><title>(3.01282,56)</title></rect><rect x="462" y="198.546" width="6" height="1.45431" stroke="black" stroke-width="1" fill="blue" tooltip="enable"><title>(3.05246,44)</title></rect><rect x="468" y="198.546" width="6" height="1.45431" stroke="black" stroke-width="1" fill="blue" tooltip="enable"><title>(3.0921,44)</title></rect><rect x="474" y="198.744" width="6" height="1.25599" stroke="black" stroke-width="1" fill="blue" tooltip="enable"><title>(3.13174,38)</title></rect><rect x="480" y="198.579" width="6" height="1.42125" stroke="black" stroke-width="1" fill="blue" tooltip="enable"><title>(3.17139,43)</title></rect><rect x="486" y="198.777" width="6" height="1.22294" stroke="black" stroke-width="1" fill="blue" tooltip="enable"><title>(3.21103,37)</title></rect><rect x="492" y="198.975" width="6" height="1.02462" stroke="black" stroke-width="1" fill="blue" tooltip="enable"><title>(3.25067,31)</title></rect><rect x="498" y="198.777" width="6" height="1.22294" stroke="black" stroke-width="1" fill="blue" tooltip="enable"><title>(3.29031,37)</title></rect><rect x="504" y="199.207" width="6" height="0.793257" stroke="black" stroke-width="1" fill="blue" tooltip="enable"><title>(3.32996,24)</title></rect><rect x="510" y="199.108" width="6" height="0.892415" stroke="black" stroke-width="1" fill="blue" tooltip="enable"><title>(3.3696,27)</title></rect><rect x="516" y="199.207" width="6" height="0.793257" stroke="black" stroke-width="1" fill="blue" tooltip="enable"><title>(3.40924,24)</title></rect><rect x="522" y="199.339" width="6" height="0.661048" stroke="black" stroke-width="1" fill="blue" tooltip="enable"><title>(3.44888,20)</title></rect><rect x="528" y="199.306" width="6" height="0.6941" stroke="black" stroke-width="1" fill="blue" tooltip="enable"><title>(3.48853,21)</title></rect><rect x="534" y="199.174" width="6" height="0.82631" stroke="black" stroke-width="1" fill="blue" tooltip="enable"><title>(3.52817,25)</title></rect><rect x="540" y="199.405" width="6" height="0.594943" stroke="black" stroke-width="1" fill="blue" tooltip="enable"><title>(3.56781,18)</title></rect><rect x="546" y="199.405" width="6" height="0.594943" stroke="black" stroke-width="1" fill="blue" tooltip="enable"><title>(3.60745,18)</title></rect><rect x="552" y="199.636" width="6" height="0.363576" stroke="black" stroke-width="1" fill="blue" tooltip="enable"><title>(3.64709,11)</title></rect><rect x="558" y="199.57" width="6" height="0.429681" stroke="black" stroke-width="1" fill="blue" tooltip="enable"><title>(3.68674,13)</title></rect><rect x="564" y="199.636" width="6" height="0.363576" stroke="black" stroke-width="1" fill="blue" tooltip="enable"><title>(3.72638,11)</title></rect><rect x="570" y="199.703" width="6" height="0.297471" stroke="black" stroke-width="1" fill="blue" tooltip="enable"><title>(3.76602,9)</title></rect><rect x="576" y="199.868" width="6" height="0.13221" stroke="black" stroke-width="1" fill="blue" tooltip="enable"><title>(3.80566,4)</title></rect><rect x="582" y="199.736" width="6" height="0.264419" stroke="black" stroke-width="1" fill="blue" tooltip="enable"><title>(3.84531,8)</title></rect><rect x="588" y="199.868" width="6" height="0.13221" stroke="black" stroke-width="1" fill="blue" tooltip="enable"><title>(3.88495,4)</title></rect><rect x="594" y="199.934" width="6" height="0.0661048" stroke="black" stroke-width="1" fill="blue" tooltip="enable"><title>(3.92459,2)</title></rect><text x="30" y="240" font-size="20" fill="black">0</text>
<text x="600" y="240" font-size="20" fill="black">3.96423</text>
<polyline points="0,220,600,220" stroke="black" stroke-width="1" fill="none"/>
<text x="720" y="20" font-size="20" fill="black">6051</text>
<text x="720" y="200" font-size="20" fill="black">0</text>
<polyline points="660,0,660,200" stroke="black" stroke-width="1" fill="none"/>
</svg>