<?xml version="1.0" standalone="yes"?>
<!-- SVG graphic -->
<svg xmlns='http://www.w3.org/2000/svg' xmlns:xlink='http://www.w3.org/1999/xlink'
 version="1.1">
<rect x="0" y="0" width="6" height="200" stroke="black" stroke-width="1" fill="blue" tooltip="enable"><title>(0,906)</title></rect><rect x="6" y="32.6711" width="6" height="167.329" stroke="black" stroke-width="1" fill="blue" tooltip="enable"><title>(0.0395706,758)</title></rect><rect x="12" y="49.8896" width="6" height="150.11" stroke="black" stroke-width="1" fill="blue" tooltip="enable"><title>(0.0791411,680)</title></rect><rect x="18" y="67.5497" width="6" height="132.45" stroke="black" stroke-width="1" fill="blue" tooltip="enable"><title>(0.118712,600)</title></rect><rect x="24" y="69.0949" width="6" height="130.905" stroke="black" stroke-width="1" fill="blue" tooltip="enable"><title>(0.158282,593)</title></rect><rect x="30" y="77.9249" width="6" height="122.075" stroke="black" stroke-width="1" fill="blue" tooltip="enable"><title>(0.197853,553)</title></rect><rect x="36" y="81.2362" width="6" height="118.764" stroke="black" stroke-width="1" fill="blue" tooltip="enable"><title>(0.237423,538)</title></rect><rect x="42" y="85.4305" width="6" height="114.57" stroke="black" stroke-width="1" fill="blue" tooltip="enable"><title>(0.276994,519)</title></rect><rect x="48" y="92.4945" width="6" height="107.506" stroke="black" stroke-width="1" fill="blue" tooltip="enable"><title>(0.316565,487)</title></rect><rect x="54" y="107.726" width="6" height="92.2737" stroke="black" stroke-width="1" fill="blue" tooltip="enable"><title>(0.356135,418)</title></rect><rect x="60" y="115.232" width="6" height="84.7682" stroke="black" stroke-width="1" fill="blue" tooltip="enable"><title>(0.395706,384)</title></rect><rect x="66" y="115.453" width="6" height="84.5475" stroke="black" stroke-width="1" fill="blue" tooltip="enable"><title>(0.435276,383)</title></rect><rect x="72" y="130.022" width="6" height="69.9779" stroke="black" stroke-width="1" fill="blue" tooltip="enable"><title>(0.474847,317)</title></rect><rect x="78" y="132.23" width="6" height="67.7704" stroke="black" stroke-width="1" fill="blue" tooltip="enable"><title>(0.514417,307)</title></rect><rect x="84" y="135.32" width="6" height="64.6799" stroke="black" stroke-width="1" fill="blue" tooltip="enable"><title>(0.553988,293)</title></rect><rect x="90" y="147.461" width="6" height="52.5386" stroke="black" stroke-width="1" fill="blue" tooltip="enable"><title>(0.593559,238)</title></rect><rect x="96" y="152.097" width="6" height="47.9029" stroke="black" stroke-width="1" fill="blue" tooltip="enable"><title>(0.633129,217)</title></rect><rect x="102" y="156.512" width="6" height="43.4879" stroke="black" stroke-width="1" fill="blue" tooltip="enable"><title>(0.6727,197)</title></rect><rect x="108" y="152.097" width="6" height="47.9029" stroke="black" stroke-width="1" fill="blue" tooltip="enable"><title>(0.71227,217)</title></rect><rect x="114" y="161.81" width="6" height="38.1898" stroke="black" stroke-width="1" fill="blue" tooltip="enable"><title>(0.751841,173)</title></rect><rect x="120" y="165.784" width="6" height="34.2163" stroke="black" stroke-width="1" fill="blue" tooltip="enable"><title>(0.791411,155)</title></rect><rect x="126" y="168.653" width="6" height="31.3466" stroke="black" stroke-width="1" fill="blue" tooltip="enable"><title>(0.830982,142)</title></rect><rect x="132" y="171.744" width="6" height="28.2561" stroke="black" stroke-width="1" fill="blue" tooltip="enable"><title>(0.870552,128)</title></rect><rect x="138" y="167.77" width="6" height="32.2296" stroke="black" stroke-width="1" fill="blue" tooltip="enable"><title>(0.910123,146)</title></rect><rect x="144" y="177.263" width="6" height="22.7373" stroke="black" stroke-width="1" fill="blue" tooltip="enable"><title>(0.949694,103)</title></rect><rect x="150" y="172.406" width="6" height="27.5938" stroke="black" stroke-width="1" fill="blue" tooltip="enable"><title>(0.989264,125)</title></rect><rect x="156" y="179.912" width="6" height="20.0883" stroke="black" stroke-width="1" fill="blue" tooltip="enable"><title>(1.02883,91)</title></rect><rect x="162" y="179.912" width="6" height="20.0883" stroke="black" stroke-width="1" fill="blue" tooltip="enable"><title>(1.06841,91)</title></rect><rect x="168" y="183.002" width="6" height="16.9978" stroke="black" stroke-width="1" fill="blue" tooltip="enable"><title>(1.10798,77)</title></rect><rect x="174" y="184.106" width="6" height="15.894" stroke="black" stroke-width="1" fill="blue" tooltip="enable"><title>(1.14755,72)</title></rect><rect x="180" y="188.521" width="6" height="11.479" stroke="black" stroke-width="1" fill="blue" tooltip="enable"><title>(1.18712,52)</title></rect><rect x="186" y="187.196" width="6" height="12.8035" stroke="black" stroke-width="1" fill="blue" tooltip="enable"><title>(1.22669,58)</title></rect><rect x="192" y="189.404" width="6" height="10.596" stroke="black" stroke-width="1" fill="blue" tooltip="enable"><title>(1.26626,48)</title></rect><rect x="198" y="187.417" width="6" height="12.5828" stroke="black" stroke-width="1" fill="blue" tooltip="enable"><title>(1.30583,57)</title></rect><rect x="204" y="187.638" width="6" height="12.362" stroke="black" stroke-width="1" fill="blue" tooltip="enable"><title>(1.3454,56)</title></rect><rect x="210" y="186.093" width="6" height="13.9073" stroke="black" stroke-width="1" fill="blue" tooltip="enable"><title>(1.38497,63)</title></rect><rect x="216" y="188.742" width="6" height="11.2583" stroke="black" stroke-width="1" fill="blue" tooltip="enable"><title>(1.42454,51)</title></rect><rect x="222" y="192.494" width="6" height="7.50552" stroke="black" stroke-width="1" fill="blue" tooltip="enable"><title>(1.46411,34)</title></rect><rect x="228" y="192.494" width="6" height="7.50552" stroke="black" stroke-width="1" fill="blue" tooltip="enable"><title>(1.50368,34)</title></rect><rect x="234" y="192.053" width="6" height="7.94702" stroke="black" stroke-width="1" fill="blue" tooltip="enable"><title>(1.54325,36)</title></rect><rect x="240" y="194.702" width="6" height="5.29801" stroke="black" stroke-width="1" fill="blue" tooltip="enable"><title>(1.58282,24)</title></rect><rect x="246" y="193.598" width="6" height="6.40177" stroke="black" stroke-width="1" fill="blue" tooltip="enable"><title>(1.62239,29)</title></rect><rect x="252" y="191.611" width="6" height="8.38852" stroke="black" stroke-width="1" fill="blue" tooltip="enable"><title>(1.66196,38)</title></rect><rect x="258" y="193.598" width="6" height="6.40177" stroke="black" stroke-width="1" fill="blue" tooltip="enable"><title>(1.70153,29)</title></rect><rect x="264" y="195.806" width="6" height="4.19426" stroke="black" stroke-width="1" fill="blue" tooltip="enable"><title>(1.7411,19)</title></rect><rect x="270" y="194.702" width="6" height="5.29801" stroke="black" stroke-width="1" fill="blue" tooltip="enable"><title>(1.78068,24)</title></rect><rect x="276" y="195.143" width="6" height="4.85651" stroke="black" stroke-width="1" fill="blue" tooltip="enable"><title>(1.82025,22)</title></rect><rect x="282" y="196.247" width="6" height="3.75276" stroke="black" stroke-width="1" fill="blue" tooltip="enable"><title>(1.85982,17)</title></rect><rect x="288" y="196.468" width="6" height="3.53201" stroke="black" stroke-width="1" fill="blue" tooltip="enable"><title>(1.89939,16)</title></rect><rect x="294" y="197.13" width="6" height="2.86976" stroke="black" stroke-width="1" fill="blue" tooltip="enable"><title>(1.93896,13)</title></rect><rect x="300" y="194.923" width="6" height="5.07726" stroke="black" stroke-width="1" fill="blue" tooltip="enable"><title>(1.97853,23)</title></rect><rect x="306" y="195.806" width="6" height="4.19426" stroke="black" stroke-width="1" fill="blue" tooltip="enable"><title>(2.0181,19)</title></rect><rect x="312" y="196.468" width="6" height="3.53201" stroke="black" stroke-width="1" fill="blue" tooltip="enable"><title>(2.05767,16)</title></rect><rect x="318" y="198.013" width="6" height="1.98676" stroke="black" stroke-width="1" fill="blue" tooltip="enable"><title>(2.09724,9)</title></rect><rect x="324" y="196.689" width="6" height="3.31126" stroke="black" stroke-width="1" fill="blue" tooltip="enable"><title>(2.13681,15)</title></rect><rect x="330" y="197.351" width="6" height="2.64901" stroke="black" stroke-width="1" fill="blue" tooltip="enable"><title>(2.17638,12)</title></rect><rect x="336" y="196.689" width="6" height="3.31126" stroke="black" stroke-width="1" fill="blue" tooltip="enable"><title>(2.21595,15)</title></rect><rect x="342" y="196.689" width="6" height="3.31126" stroke="black" stroke-width="1" fill="blue" tooltip="enable"><title>(2.25552,15)</title></rect><rect x="348" y="197.351" width="6" height="2.64901" stroke="black" stroke-width="1" fill="blue" tooltip="enable"><title>(2.29509,12)</title></rect><rect x="354" y="198.013" width="6" height="1.98676" stroke="black" stroke-width="1" fill="blue" tooltip="enable"><title>(2.33466,9)</title></rect><rect x="360" y="197.792" width="6" height="2.20751" stroke="black" stroke-width="1" fill="blue" tooltip="enable"><title>(2.37423,10)</title></rect><rect x="366" y="198.675" width="6" height="1.3245" stroke="black" stroke-width="1" fill="blue" tooltip="enable"><title>(2.4138,6)</title></rect><rect x="372" y="198.013" width="6" height="1.98676" stroke="black" stroke-width="1" fill="blue" tooltip="enable"><title>(2.45338,9)</title></rect><rect x="378" y="197.572" width="6" height="2.42826" stroke="black" stroke-width="1" fill="blue" tooltip="enable"><title>(2.49295,11)</title></rect><rect x="384" y="198.455" width="6" height="1.54525" stroke="black" stroke-width="1" fill="blue" tooltip="enable"><title>(2.53252,7)</title></rect><rect x="390" y="198.013" width="6" height="1.98676" stroke="black" stroke-width="1" fill="blue" tooltip="enable"><title>(2.57209,9)</title></rect><rect x="396" y="198.013" width="6" height="1.98676" stroke="black" stroke-width="1" fill="blue" tooltip="enable"><title>(2.61166,9)</title></rect><rect x="402" y="198.675" width="6" height="1.3245" stroke="black" stroke-width="1" fill="blue" tooltip="enable"><title>(2.65123,6)</title></rect><rect x="408" y="199.338" width="6" height="0.662252" stroke="black" stroke-width="1" fill="blue" tooltip="enable"><title>(2.6908,3)</title></rect><rect x="414" y="198.896" width="6" height="1.10375" stroke="black" stroke-width="1" fill="blue" tooltip="enable"><title>(2.73037,5)</title></rect><rect x="420" y="198.675" width="6" height="1.3245" stroke="black" stroke-width="1" fill="blue" tooltip="enable"><title>(2.76994,6)</title></rect><rect x="426" y="198.675" width="6" height="1.3245" stroke="black" stroke-width="1" fill="blue" tooltip="enable"><title>(2.80951,6)</title></rect><rect x="432" y="197.572" width="6" height="2.42826" stroke="black" stroke-width="1" fill="blue" tooltip="enable"><title>(2.84908,11)</title></rect><rect x="438" y="198.675" width="6" height="1.3245" stroke="black" stroke-width="1" fill="blue" tooltip="enable"><title>(2.88865,6)</title></rect><rect x="444" y="198.896" width="6" height="1.10375" stroke="black" stroke-width="1" fill="blue" tooltip="enable"><title>(2.92822,5)</title></rect><rect x="450" y="199.338" width="6" height="0.662252" stroke="black" stroke-width="1" fill="blue" tooltip="enable"><title>(2.96779,3)</title></rect><rect x="456" y="199.559" width="6" height="0.441501" stroke="black" stroke-width="1" fill="blue" tooltip="enable"><title>(3.00736,2)</title></rect><rect x="462" y="199.779" width="6" height="0.220751" stroke="black" stroke-width="1" fill="blue" tooltip="enable"><title>(3.04693,1)</title></rect><rect x="468" y="199.117" width="6" height="0.883002" stroke="black" stroke-width="1" fill="blue" tooltip="enable"><title>(3.0865,4)</title></rect><rect x="474" y="199.117" width="6" height="0.883002" stroke="black" stroke-width="1" fill="blue" tooltip="enable"><title>(3.12608,4)</title></rect><rect x="480" y="199.338" width="6" height="0.662252" stroke="black" stroke-width="1" fill="blue" tooltip="enable"><title>(3.16565,3)</title></rect><rect x="486" y="199.779" width="6" height="0.220751" stroke="black" stroke-width="1" fill="blue" tooltip="enable"><title>(3.20522,1)</title></rect><rect x="492" y="199.559" width="6" height="0.441501" stroke="black" stroke-width="1" fill="blue" tooltip="enable"><title>(3.24479,2)</title></rect><rect x="498" y="199.779" width="6" height="0.220751" stroke="black" stroke-width="1" fill="blue" tooltip="enable"><title>(3.28436,1)</title></rect><rect x="504" y="198.896" width="6" height="1.10375" stroke="black" stroke-width="1" fill="blue" tooltip="enable"><title>(3.32393,5)</title></rect><rect x="510" y="198.675" width="6" height="1.3245" stroke="black" stroke-width="1" fill="blue" tooltip="enable"><title>(3.3635,6)</title></rect><rect x="516" y="200" width="6" height="0" stroke="black" stroke-width="1" fill="blue" tooltip="enable"><title>(3.40307,0)</title></rect><rect x="522" y="199.338" width="6" height="0.662252" stroke="black" stroke-width="1" fill="blue" tooltip="enable"><title>(3.44264,3)</title></rect><rect x="528" y="199.779" width="6" height="0.220751" stroke="black" stroke-width="1" fill="blue" tooltip="enable"><title>(3.48221,1)</title></rect><rect x="534" y="200" width="6" height="0" stroke="black" stroke-width="1" fill="blue" tooltip="enable"><title>(3.52178,0)</title></rect><rect x="540" y="199.559" width="6" height="0.441501" stroke="black" stroke-width="1" fill="blue" tooltip="enable"><title>(3.56135,2)</title></rect><rect x="546" y="199.779" width="6" height="0.220751" stroke="black" stroke-width="1" fill="blue" tooltip="enable"><title>(3.60092,1)</title></rect><rect x="552" y="199.779" width="6" height="0.220751" stroke="black" stroke-width="1" fill="blue" tooltip="enable"><title>(3.64049,1)</title></rect><rect x="558" y="200" width="6" height="0" stroke="black" stroke-width="1" fill="blue" tooltip="enable"><title>(3.68006,0)</title></rect><rect x="564" y="199.779" width="6" height="0.220751" stroke="black" stroke-width="1" fill="blue" tooltip="enable"><title>(3.71963,1)</title></rect><rect x="570" y="200" width="6" height="0" stroke="black" stroke-width="1" fill="blue" tooltip="enable"><title>(3.7592,0)</title></rect><rect x="576" y="199.559" width="6" height="0.441501" stroke="black" stroke-width="1" fill="blue" tooltip="enable"><title>(3.79877,2)</title></rect><rect x="582" y="199.559" width="6" height="0.441501" stroke="black" stroke-width="1" fill="blue" tooltip="enable"><title>(3.83835,2)</title></rect><rect x="588" y="200" width="6" height="0" stroke="black" stroke-width="1" fill="blue" tooltip="enable"><title>(3.87792,0)</title></rect><rect x="594" y="199.779" width="6" height="0.220751" stroke="black" stroke-width="1" fill="blue" tooltip="enable"><title>(3.91749,1)</title></rect><text x="30" y="240" font-size="20" fill="black">0</text>
<text x="600" y="240" font-size="20" fill="black">3.95706</text>
<polyline points="0,220,600,220" stroke="black" stroke-width="1" fill="none"/>
<text x="720" y="20" font-size="20" fill="black">906</text>
<text x="720" y="200" font-size="20" fill="black">0</text>
<polyline points="660,0,660,200" stroke="black" stroke-width="1" fill="none"/>
</svg>