<?xml version="1.0" standalone="yes"?>
<!-- SVG graphic -->
<svg xmlns='http://www.w3.org/2000/svg' xmlns:xlink='http://www.w3.org/1999/xlink'
 version="1.1">
<rect x="0" y="0" width="6" height="200" stroke="black" stroke-width="1" fill="blue" tooltip="enable"><title>(0,3465)</title></rect><rect x="6" y="123.232" width="6" height="76.7677" stroke="black" stroke-width="1" fill="blue" tooltip="enable"><title>(0.039024,1330)</title></rect><rect x="12" y="139.567" width="6" height="60.4329" stroke="black" stroke-width="1" fill="blue" tooltip="enable"><title>(0.078048,1047)</title></rect><rect x="18" y="141.587" width="6" height="58.4127" stroke="black" stroke-width="1" fill="blue" tooltip="enable"><title>(0.117072,1012)</title></rect><rect x="24" y="149.206" width="6" height="50.7937" stroke="black" stroke-width="1" fill="blue" tooltip="enable"><title>(0.156096,880)</title></rect><rect x="30" y="148.225" width="6" height="51.7749" stroke="black" stroke-width="1" fill="blue" tooltip="enable"><title>(0.19512,897)</title></rect><rect x="36" y="148.341" width="6" height="51.6595" stroke="black" stroke-width="1" fill="blue" tooltip="enable"><title>(0.234144,895)</title></rect><rect x="42" y="152.496" width="6" height="47.5036" stroke="black" stroke-width="1" fill="blue" tooltip="enable"><title>(0.273168,823)</title></rect><rect x="48" y="154.517" width="6" height="45.4834" stroke="black" stroke-width="1" fill="blue" tooltip="enable"><title>(0.312192,788)</title></rect><rect x="54" y="158.384" width="6" height="41.6162" stroke="black" stroke-width="1" fill="blue" tooltip="enable"><title>(0.351216,721)</title></rect><rect x="60" y="159.942" width="6" height="40.0577" stroke="black" stroke-width="1" fill="blue" tooltip="enable"><title>(0.39024,694)</title></rect><rect x="66" y="161.732" width="6" height="38.2684" stroke="black" stroke-width="1" fill="blue" tooltip="enable"><title>(0.429264,663)</title></rect><rect x="72" y="164.271" width="6" height="35.7287" stroke="black" stroke-width="1" fill="blue" tooltip="enable"><title>(0.468288,619)</title></rect><rect x="78" y="165.772" width="6" height="34.228" stroke="black" stroke-width="1" fill="blue" tooltip="enable"><title>(0.507312,593)</title></rect><rect x="84" y="165.772" width="6" height="34.228" stroke="black" stroke-width="1" fill="blue" tooltip="enable"><title>(0.546336,593)</title></rect><rect x="90" y="168.947" width="6" height="31.0534" stroke="black" stroke-width="1" fill="blue" tooltip="enable"><title>(0.58536,538)</title></rect><rect x="96" y="172.468" width="6" height="27.5325" stroke="black" stroke-width="1" fill="blue" tooltip="enable"><title>(0.624384,477)</title></rect><rect x="102" y="172.698" width="6" height="27.3016" stroke="black" stroke-width="1" fill="blue" tooltip="enable"><title>(0.663408,473)</title></rect><rect x="108" y="174.488" width="6" height="25.5123" stroke="black" stroke-width="1" fill="blue" tooltip="enable"><title>(0.702432,442)</title></rect><rect x="114" y="176.797" width="6" height="23.2035" stroke="black" stroke-width="1" fill="blue" tooltip="enable"><title>(0.741456,402)</title></rect><rect x="120" y="176.219" width="6" height="23.7807" stroke="black" stroke-width="1" fill="blue" tooltip="enable"><title>(0.78048,412)</title></rect><rect x="126" y="179.625" width="6" height="20.3752" stroke="black" stroke-width="1" fill="blue" tooltip="enable"><title>(0.819504,353)</title></rect><rect x="132" y="181.126" width="6" height="18.8745" stroke="black" stroke-width="1" fill="blue" tooltip="enable"><title>(0.858528,327)</title></rect><rect x="138" y="182.222" width="6" height="17.7778" stroke="black" stroke-width="1" fill="blue" tooltip="enable"><title>(0.897552,308)</title></rect><rect x="144" y="183.146" width="6" height="16.8543" stroke="black" stroke-width="1" fill="blue" tooltip="enable"><title>(0.936576,292)</title></rect><rect x="150" y="182.857" width="6" height="17.1429" stroke="black" stroke-width="1" fill="blue" tooltip="enable"><title>(0.9756,297)</title></rect><rect x="156" y="184.877" width="6" height="15.1227" stroke="black" stroke-width="1" fill="blue" tooltip="enable"><title>(1.01462,262)</title></rect><rect x="162" y="185.801" width="6" height="14.1991" stroke="black" stroke-width="1" fill="blue" tooltip="enable"><title>(1.05365,246)</title></rect><rect x="168" y="187.59" width="6" height="12.4098" stroke="black" stroke-width="1" fill="blue" tooltip="enable"><title>(1.09267,215)</title></rect><rect x="174" y="187.937" width="6" height="12.0635" stroke="black" stroke-width="1" fill="blue" tooltip="enable"><title>(1.1317,209)</title></rect><rect x="180" y="190.13" width="6" height="9.87013" stroke="black" stroke-width="1" fill="blue" tooltip="enable"><title>(1.17072,171)</title></rect><rect x="186" y="187.532" width="6" height="12.4675" stroke="black" stroke-width="1" fill="blue" tooltip="enable"><title>(1.20974,216)</title></rect><rect x="192" y="188.629" width="6" height="11.3709" stroke="black" stroke-width="1" fill="blue" tooltip="enable"><title>(1.24877,197)</title></rect><rect x="198" y="190.996" width="6" height="9.00433" stroke="black" stroke-width="1" fill="blue" tooltip="enable"><title>(1.28779,156)</title></rect><rect x="204" y="190.649" width="6" height="9.35065" stroke="black" stroke-width="1" fill="blue" tooltip="enable"><title>(1.32682,162)</title></rect><rect x="210" y="191.342" width="6" height="8.65801" stroke="black" stroke-width="1" fill="blue" tooltip="enable"><title>(1.36584,150)</title></rect><rect x="216" y="192.266" width="6" height="7.73449" stroke="black" stroke-width="1" fill="blue" tooltip="enable"><title>(1.40486,134)</title></rect><rect x="222" y="193.42" width="6" height="6.58009" stroke="black" stroke-width="1" fill="blue" tooltip="enable"><title>(1.44389,114)</title></rect><rect x="228" y="193.189" width="6" height="6.81097" stroke="black" stroke-width="1" fill="blue" tooltip="enable"><title>(1.48291,118)</title></rect><rect x="234" y="193.766" width="6" height="6.23377" stroke="black" stroke-width="1" fill="blue" tooltip="enable"><title>(1.52194,108)</title></rect><rect x="240" y="193.824" width="6" height="6.17605" stroke="black" stroke-width="1" fill="blue" tooltip="enable"><title>(1.56096,107)</title></rect><rect x="246" y="194.863" width="6" height="5.13708" stroke="black" stroke-width="1" fill="blue" tooltip="enable"><title>(1.59998,89)</title></rect><rect x="252" y="194.921" width="6" height="5.07937" stroke="black" stroke-width="1" fill="blue" tooltip="enable"><title>(1.63901,88)</title></rect><rect x="258" y="195.96" width="6" height="4.0404" stroke="black" stroke-width="1" fill="blue" tooltip="enable"><title>(1.67803,70)</title></rect><rect x="264" y="195.209" width="6" height="4.79076" stroke="black" stroke-width="1" fill="blue" tooltip="enable"><title>(1.71706,83)</title></rect><rect x="270" y="195.094" width="6" height="4.9062" stroke="black" stroke-width="1" fill="blue" tooltip="enable"><title>(1.75608,85)</title></rect><rect x="276" y="195.152" width="6" height="4.84848" stroke="black" stroke-width="1" fill="blue" tooltip="enable"><title>(1.7951,84)</title></rect><rect x="282" y="195.382" width="6" height="4.6176" stroke="black" stroke-width="1" fill="blue" tooltip="enable"><title>(1.83413,80)</title></rect><rect x="288" y="195.613" width="6" height="4.38672" stroke="black" stroke-width="1" fill="blue" tooltip="enable"><title>(1.87315,76)</title></rect><rect x="294" y="196.248" width="6" height="3.7518" stroke="black" stroke-width="1" fill="blue" tooltip="enable"><title>(1.91218,65)</title></rect><rect x="300" y="196.883" width="6" height="3.11688" stroke="black" stroke-width="1" fill="blue" tooltip="enable"><title>(1.9512,54)</title></rect><rect x="306" y="195.786" width="6" height="4.21356" stroke="black" stroke-width="1" fill="blue" tooltip="enable"><title>(1.99022,73)</title></rect><rect x="312" y="196.421" width="6" height="3.57864" stroke="black" stroke-width="1" fill="blue" tooltip="enable"><title>(2.02925,62)</title></rect><rect x="318" y="197.114" width="6" height="2.886" stroke="black" stroke-width="1" fill="blue" tooltip="enable"><title>(2.06827,50)</title></rect><rect x="324" y="197.576" width="6" height="2.42424" stroke="black" stroke-width="1" fill="blue" tooltip="enable"><title>(2.1073,42)</title></rect><rect x="330" y="197.691" width="6" height="2.3088" stroke="black" stroke-width="1" fill="blue" tooltip="enable"><title>(2.14632,40)</title></rect><rect x="336" y="197.229" width="6" height="2.77056" stroke="black" stroke-width="1" fill="blue" tooltip="enable"><title>(2.18534,48)</title></rect><rect x="342" y="197.691" width="6" height="2.3088" stroke="black" stroke-width="1" fill="blue" tooltip="enable"><title>(2.22437,40)</title></rect><rect x="348" y="197.922" width="6" height="2.07792" stroke="black" stroke-width="1" fill="blue" tooltip="enable"><title>(2.26339,36)</title></rect><rect x="354" y="198.038" width="6" height="1.96248" stroke="black" stroke-width="1" fill="blue" tooltip="enable"><title>(2.30242,34)</title></rect><rect x="360" y="198.326" width="6" height="1.67388" stroke="black" stroke-width="1" fill="blue" tooltip="enable"><title>(2.34144,29)</title></rect><rect x="366" y="198.153" width="6" height="1.84704" stroke="black" stroke-width="1" fill="blue" tooltip="enable"><title>(2.38046,32)</title></rect><rect x="372" y="198.384" width="6" height="1.61616" stroke="black" stroke-width="1" fill="blue" tooltip="enable"><title>(2.41949,28)</title></rect><rect x="378" y="198.903" width="6" height="1.09668" stroke="black" stroke-width="1" fill="blue" tooltip="enable"><title>(2.45851,19)</title></rect><rect x="384" y="198.384" width="6" height="1.61616" stroke="black" stroke-width="1" fill="blue" tooltip="enable"><title>(2.49754,28)</title></rect><rect x="390" y="198.442" width="6" height="1.55844" stroke="black" stroke-width="1" fill="blue" tooltip="enable"><title>(2.53656,27)</title></rect><rect x="396" y="198.499" width="6" height="1.50072" stroke="black" stroke-width="1" fill="blue" tooltip="enable"><title>(2.57558,26)</title></rect><rect x="402" y="198.615" width="6" height="1.38528" stroke="black" stroke-width="1" fill="blue" tooltip="enable"><title>(2.61461,24)</title></rect><rect x="408" y="198.788" width="6" height="1.21212" stroke="black" stroke-width="1" fill="blue" tooltip="enable"><title>(2.65363,21)</title></rect><rect x="414" y="198.384" width="6" height="1.61616" stroke="black" stroke-width="1" fill="blue" tooltip="enable"><title>(2.69266,28)</title></rect><rect x="420" y="199.192" width="6" height="0.808081" stroke="black" stroke-width="1" fill="blue" tooltip="enable"><title>(2.73168,14)</title></rect><rect x="426" y="199.25" width="6" height="0.750361" stroke="black" stroke-width="1" fill="blue" tooltip="enable"><title>(2.7707,13)</title></rect><rect x="432" y="198.903" width="6" height="1.09668" stroke="black" stroke-width="1" fill="blue" tooltip="enable"><title>(2.80973,19)</title></rect><rect x="438" y="198.846" width="6" height="1.1544" stroke="black" stroke-width="1" fill="blue" tooltip="enable"><title>(2.84875,20)</title></rect><rect x="444" y="199.654" width="6" height="0.34632" stroke="black" stroke-width="1" fill="blue" tooltip="enable"><title>(2.88778,6)</title></rect><rect x="450" y="199.307" width="6" height="0.692641" stroke="black" stroke-width="1" fill="blue" tooltip="enable"><title>(2.9268,12)</title></rect><rect x="456" y="199.076" width="6" height="0.923521" stroke="black" stroke-width="1" fill="blue" tooltip="enable"><title>(2.96582,16)</title></rect><rect x="462" y="199.019" width="6" height="0.981241" stroke="black" stroke-width="1" fill="blue" tooltip="enable"><title>(3.00485,17)</title></rect><rect x="468" y="199.481" width="6" height="0.519481" stroke="black" stroke-width="1" fill="blue" tooltip="enable"><title>(3.04387,9)</title></rect><rect x="474" y="199.481" width="6" height="0.519481" stroke="black" stroke-width="1" fill="blue" tooltip="enable"><title>(3.0829,9)</title></rect><rect x="480" y="199.423" width="6" height="0.577201" stroke="black" stroke-width="1" fill="blue" tooltip="enable"><title>(3.12192,10)</title></rect><rect x="486" y="199.654" width="6" height="0.34632" stroke="black" stroke-width="1" fill="blue" tooltip="enable"><title>(3.16094,6)</title></rect><rect x="492" y="199.538" width="6" height="0.46176" stroke="black" stroke-width="1" fill="blue" tooltip="enable"><title>(3.19997,8)</title></rect><rect x="498" y="199.481" width="6" height="0.519481" stroke="black" stroke-width="1" fill="blue" tooltip="enable"><title>(3.23899,9)</title></rect><rect x="504" y="199.596" width="6" height="0.40404" stroke="black" stroke-width="1" fill="blue" tooltip="enable"><title>(3.27802,7)</title></rect><rect x="510" y="199.481" width="6" height="0.519481" stroke="black" stroke-width="1" fill="blue" tooltip="enable"><title>(3.31704,9)</title></rect><rect x="516" y="199.711" width="6" height="0.2886" stroke="black" stroke-width="1" fill="blue" tooltip="enable"><title>(3.35606,5)</title></rect><rect x="522" y="199.885" width="6" height="0.11544" stroke="black" stroke-width="1" fill="blue" tooltip="enable"><title>(3.39509,2)</title></rect><rect x="528" y="199.654" width="6" height="0.34632" stroke="black" stroke-width="1" fill="blue" tooltip="enable"><title>(3.43411,6)</title></rect><rect x="534" y="199.596" width="6" height="0.40404" stroke="black" stroke-width="1" fill="blue" tooltip="enable"><title>(3.47314,7)</title></rect><rect x="540" y="199.711" width="6" height="0.2886" stroke="black" stroke-width="1" fill="blue" tooltip="enable"><title>(3.51216,5)</title></rect><rect x="546" y="199.711" width="6" height="0.2886" stroke="black" stroke-width="1" fill="blue" tooltip="enable"><title>(3.55118,5)</title></rect><rect x="552" y="199.711" width="6" height="0.2886" stroke="black" stroke-width="1" fill="blue" tooltip="enable"><title>(3.59021,5)</title></rect><rect x="558" y="199.769" width="6" height="0.23088" stroke="black" stroke-width="1" fill="blue" tooltip="enable"><title>(3.62923,4)</title></rect><rect x="564" y="199.711" width="6" height="0.2886" stroke="black" stroke-width="1" fill="blue" tooltip="enable"><title>(3.66826,5)</title></rect><rect x="570" y="199.827" width="6" height="0.17316" stroke="black" stroke-width="1" fill="blue" tooltip="enable"><title>(3.70728,3)</title></rect><rect x="576" y="199.942" width="6" height="0.0577201" stroke="black" stroke-width="1" fill="blue" tooltip="enable"><title>(3.7463,1)</title></rect><rect x="582" y="199.885" width="6" height="0.11544" stroke="black" stroke-width="1" fill="blue" tooltip="enable"><title>(3.78533,2)</title></rect><rect x="588" y="200" width="6" height="0" stroke="black" stroke-width="1" fill="blue" tooltip="enable"><title>(3.82435,0)</title></rect><rect x="594" y="199.711" width="6" height="0.2886" stroke="black" stroke-width="1" fill="blue" tooltip="enable"><title>(3.86338,5)</title></rect><text x="30" y="240" font-size="20" fill="black">0</text>
<text x="600" y="240" font-size="20" fill="black">3.9024</text>
<polyline points="0,220,600,220" stroke="black" stroke-width="1" fill="none"/>
<text x="720" y="20" font-size="20" fill="black">3465</text>
<text x="720" y="200" font-size="20" fill="black">0</text>
<polyline points="660,0,660,200" stroke="black" stroke-width="1" fill="none"/>
</svg>